<mxfile host="app.diagrams.net" modified="2023-03-29T09:53:46.839Z" agent="5.0 (Macintosh; Intel Mac OS X 10_15_7) AppleWebKit/537.36 (KHTML, like Gecko) Chrome/111.0.0.0 Safari/537.36" etag="e6UIDkSRdCz_vfOyIUgG" version="21.0.10" type="github">
  <diagram name="Page-1" id="EN5Naw8FRAcxZiTQ8uWL">
    <mxGraphModel dx="2358" dy="1304" grid="1" gridSize="10" guides="1" tooltips="1" connect="1" arrows="1" fold="1" page="1" pageScale="1" pageWidth="850" pageHeight="1100" math="0" shadow="0">
      <root>
        <mxCell id="0" />
        <mxCell id="1" parent="0" />
        <mxCell id="jHiKUxw7V34No5H-9bz7-1" value="&lt;span style=&quot;color: rgb(0, 0, 0); font-family: Helvetica; font-style: normal; font-variant-ligatures: normal; font-variant-caps: normal; font-weight: 400; letter-spacing: normal; orphans: 2; text-align: center; text-indent: 0px; text-transform: none; widows: 2; word-spacing: 0px; -webkit-text-stroke-width: 0px; background-color: rgb(251, 251, 251); text-decoration-thickness: initial; text-decoration-style: initial; text-decoration-color: initial; float: none; display: inline !important;&quot;&gt;&lt;font style=&quot;font-size: 32px;&quot;&gt;Collective Communication Implement&lt;/font&gt;&lt;/span&gt;" style="rounded=0;whiteSpace=wrap;html=1;fillColor=#ffcc99;strokeColor=#36393d;" vertex="1" parent="1">
          <mxGeometry x="160" y="160" width="1600" height="80" as="geometry" />
        </mxCell>
        <mxCell id="jHiKUxw7V34No5H-9bz7-2" value="&lt;font style=&quot;font-size: 24px;&quot;&gt;INTRA-NODE&lt;/font&gt;" style="rounded=0;whiteSpace=wrap;html=1;fillColor=#cce5ff;strokeColor=#36393d;" vertex="1" parent="1">
          <mxGeometry x="160" y="300" width="600" height="60" as="geometry" />
        </mxCell>
        <mxCell id="jHiKUxw7V34No5H-9bz7-3" value="Scatter Reduce" style="rounded=0;whiteSpace=wrap;html=1;fillColor=#ffcccc;strokeColor=#36393d;" vertex="1" parent="1">
          <mxGeometry x="160" y="400" width="120" height="40" as="geometry" />
        </mxCell>
        <mxCell id="jHiKUxw7V34No5H-9bz7-4" value="Allgather" style="rounded=0;whiteSpace=wrap;html=1;fillColor=#ffcccc;strokeColor=#36393d;" vertex="1" parent="1">
          <mxGeometry x="320" y="400" width="120" height="40" as="geometry" />
        </mxCell>
        <mxCell id="jHiKUxw7V34No5H-9bz7-5" value="Gather" style="rounded=0;whiteSpace=wrap;html=1;fillColor=#ffcccc;strokeColor=#36393d;" vertex="1" parent="1">
          <mxGeometry x="480" y="400" width="120" height="40" as="geometry" />
        </mxCell>
        <mxCell id="jHiKUxw7V34No5H-9bz7-6" value="Bcast" style="rounded=0;whiteSpace=wrap;html=1;fillColor=#ffcccc;strokeColor=#36393d;" vertex="1" parent="1">
          <mxGeometry x="640" y="400" width="120" height="40" as="geometry" />
        </mxCell>
        <mxCell id="jHiKUxw7V34No5H-9bz7-7" value="Ring&lt;br style=&quot;border-color: var(--border-color);&quot;&gt;Scatter Reduce" style="rounded=0;whiteSpace=wrap;html=1;fillColor=#eeeeee;strokeColor=#36393d;" vertex="1" parent="1">
          <mxGeometry x="160" y="480" width="40" height="80" as="geometry" />
        </mxCell>
        <mxCell id="jHiKUxw7V34No5H-9bz7-8" value="Direct&lt;br&gt;Scatter Reduce" style="rounded=0;whiteSpace=wrap;html=1;fillColor=#eeeeee;strokeColor=#36393d;" vertex="1" parent="1">
          <mxGeometry x="240" y="480" width="40" height="80" as="geometry" />
        </mxCell>
        <mxCell id="jHiKUxw7V34No5H-9bz7-9" value="Ring&lt;br style=&quot;border-color: var(--border-color);&quot;&gt;All&lt;br&gt;Gather" style="rounded=0;whiteSpace=wrap;html=1;fillColor=#eeeeee;strokeColor=#36393d;" vertex="1" parent="1">
          <mxGeometry x="320" y="480" width="40" height="80" as="geometry" />
        </mxCell>
        <mxCell id="jHiKUxw7V34No5H-9bz7-10" value="Direct&lt;br style=&quot;border-color: var(--border-color);&quot;&gt;All&lt;br&gt;Gather" style="rounded=0;whiteSpace=wrap;html=1;fillColor=#eeeeee;strokeColor=#36393d;" vertex="1" parent="1">
          <mxGeometry x="400" y="480" width="40" height="80" as="geometry" />
        </mxCell>
        <mxCell id="jHiKUxw7V34No5H-9bz7-11" value="Direct&lt;br&gt;Gather" style="rounded=0;whiteSpace=wrap;html=1;fillColor=#eeeeee;strokeColor=#36393d;" vertex="1" parent="1">
          <mxGeometry x="480" y="480" width="40" height="80" as="geometry" />
        </mxCell>
        <mxCell id="jHiKUxw7V34No5H-9bz7-12" value="Direct&lt;br&gt;Bcast" style="rounded=0;whiteSpace=wrap;html=1;fillColor=#eeeeee;strokeColor=#36393d;" vertex="1" parent="1">
          <mxGeometry x="640" y="480" width="40" height="80" as="geometry" />
        </mxCell>
        <mxCell id="jHiKUxw7V34No5H-9bz7-13" value="&lt;font style=&quot;font-size: 24px;&quot;&gt;INTRA-NODE PATH P2P/SWIB &lt;br&gt;+ DEVICE KERNEL + BARRIER&lt;/font&gt;" style="rounded=0;whiteSpace=wrap;html=1;fillColor=#cdeb8b;strokeColor=#36393d;" vertex="1" parent="1">
          <mxGeometry x="160" y="600" width="600" height="60" as="geometry" />
        </mxCell>
        <mxCell id="jHiKUxw7V34No5H-9bz7-14" value="Recursive&lt;br&gt;Bcast" style="rounded=0;whiteSpace=wrap;html=1;fillColor=#eeeeee;strokeColor=#36393d;" vertex="1" parent="1">
          <mxGeometry x="700" y="480" width="60" height="80" as="geometry" />
        </mxCell>
        <mxCell id="jHiKUxw7V34No5H-9bz7-15" value="&lt;font style=&quot;font-size: 24px;&quot;&gt;INTER-NODE&lt;/font&gt;" style="rounded=0;whiteSpace=wrap;html=1;fillColor=#cce5ff;strokeColor=#36393d;" vertex="1" parent="1">
          <mxGeometry x="800" y="300" width="600" height="60" as="geometry" />
        </mxCell>
        <mxCell id="jHiKUxw7V34No5H-9bz7-16" value="Scatter Reduce" style="rounded=0;whiteSpace=wrap;html=1;fillColor=#ffcccc;strokeColor=#36393d;" vertex="1" parent="1">
          <mxGeometry x="800" y="400" width="120" height="40" as="geometry" />
        </mxCell>
        <mxCell id="jHiKUxw7V34No5H-9bz7-17" value="Allgather" style="rounded=0;whiteSpace=wrap;html=1;fillColor=#ffcccc;strokeColor=#36393d;" vertex="1" parent="1">
          <mxGeometry x="960" y="400" width="120" height="40" as="geometry" />
        </mxCell>
        <mxCell id="jHiKUxw7V34No5H-9bz7-18" value="Gather" style="rounded=0;whiteSpace=wrap;html=1;fillColor=#ffcccc;strokeColor=#36393d;" vertex="1" parent="1">
          <mxGeometry x="1120" y="400" width="120" height="40" as="geometry" />
        </mxCell>
        <mxCell id="jHiKUxw7V34No5H-9bz7-19" value="Bcast" style="rounded=0;whiteSpace=wrap;html=1;fillColor=#ffcccc;strokeColor=#36393d;" vertex="1" parent="1">
          <mxGeometry x="1280" y="400" width="120" height="40" as="geometry" />
        </mxCell>
        <mxCell id="jHiKUxw7V34No5H-9bz7-20" value="Ring&lt;br style=&quot;border-color: var(--border-color);&quot;&gt;Scatter Reduce" style="rounded=0;whiteSpace=wrap;html=1;fillColor=#eeeeee;strokeColor=#36393d;" vertex="1" parent="1">
          <mxGeometry x="800" y="480" width="40" height="80" as="geometry" />
        </mxCell>
        <mxCell id="jHiKUxw7V34No5H-9bz7-21" value="Direct&lt;br&gt;Scatter Reduce" style="rounded=0;whiteSpace=wrap;html=1;fillColor=#eeeeee;strokeColor=#36393d;" vertex="1" parent="1">
          <mxGeometry x="880" y="480" width="40" height="80" as="geometry" />
        </mxCell>
        <mxCell id="jHiKUxw7V34No5H-9bz7-22" value="Ring&lt;br style=&quot;border-color: var(--border-color);&quot;&gt;All&lt;br&gt;Gather" style="rounded=0;whiteSpace=wrap;html=1;fillColor=#eeeeee;strokeColor=#36393d;" vertex="1" parent="1">
          <mxGeometry x="960" y="480" width="40" height="80" as="geometry" />
        </mxCell>
        <mxCell id="jHiKUxw7V34No5H-9bz7-23" value="Direct&lt;br style=&quot;border-color: var(--border-color);&quot;&gt;All&lt;br&gt;Gather" style="rounded=0;whiteSpace=wrap;html=1;fillColor=#eeeeee;strokeColor=#36393d;" vertex="1" parent="1">
          <mxGeometry x="1040" y="480" width="40" height="80" as="geometry" />
        </mxCell>
        <mxCell id="jHiKUxw7V34No5H-9bz7-24" value="Direct&lt;br&gt;Gather" style="rounded=0;whiteSpace=wrap;html=1;fillColor=#eeeeee;strokeColor=#36393d;" vertex="1" parent="1">
          <mxGeometry x="1120" y="480" width="40" height="80" as="geometry" />
        </mxCell>
        <mxCell id="jHiKUxw7V34No5H-9bz7-25" value="Direct&lt;br&gt;Bcast" style="rounded=0;whiteSpace=wrap;html=1;fillColor=#eeeeee;strokeColor=#36393d;" vertex="1" parent="1">
          <mxGeometry x="1280" y="480" width="40" height="80" as="geometry" />
        </mxCell>
        <mxCell id="jHiKUxw7V34No5H-9bz7-26" value="Recursive&lt;br&gt;Bcast" style="rounded=0;whiteSpace=wrap;html=1;fillColor=#eeeeee;strokeColor=#36393d;" vertex="1" parent="1">
          <mxGeometry x="1340" y="480" width="60" height="80" as="geometry" />
        </mxCell>
        <mxCell id="jHiKUxw7V34No5H-9bz7-27" value="&lt;font style=&quot;font-size: 24px;&quot;&gt;INTRA-NODE PATH SOCKET/SHM/IB &lt;br&gt;+ HOST CALCULATE + MCP + BARRIER&lt;/font&gt;" style="rounded=0;whiteSpace=wrap;html=1;fillColor=#cdeb8b;strokeColor=#36393d;" vertex="1" parent="1">
          <mxGeometry x="800" y="600" width="600" height="60" as="geometry" />
        </mxCell>
        <mxCell id="jHiKUxw7V34No5H-9bz7-28" value="&lt;font style=&quot;font-size: 24px;&quot;&gt;Device&lt;/font&gt;" style="rounded=0;whiteSpace=wrap;html=1;fillColor=#cce5ff;strokeColor=#36393d;" vertex="1" parent="1">
          <mxGeometry x="1440" y="300" width="320" height="60" as="geometry" />
        </mxCell>
        <mxCell id="jHiKUxw7V34No5H-9bz7-29" value="Scatter Reduce" style="rounded=0;whiteSpace=wrap;html=1;fillColor=#ffcccc;strokeColor=#36393d;" vertex="1" parent="1">
          <mxGeometry x="1440" y="400" width="80" height="40" as="geometry" />
        </mxCell>
        <mxCell id="jHiKUxw7V34No5H-9bz7-30" value="Allgather" style="rounded=0;whiteSpace=wrap;html=1;fillColor=#ffcccc;strokeColor=#36393d;" vertex="1" parent="1">
          <mxGeometry x="1560" y="400" width="60" height="40" as="geometry" />
        </mxCell>
        <mxCell id="jHiKUxw7V34No5H-9bz7-31" value="Gather" style="rounded=0;whiteSpace=wrap;html=1;fillColor=#ffcccc;strokeColor=#36393d;" vertex="1" parent="1">
          <mxGeometry x="1640" y="400" width="60" height="40" as="geometry" />
        </mxCell>
        <mxCell id="jHiKUxw7V34No5H-9bz7-32" value="Bcast" style="rounded=0;whiteSpace=wrap;html=1;fillColor=#ffcccc;strokeColor=#36393d;" vertex="1" parent="1">
          <mxGeometry x="1720" y="400" width="40" height="40" as="geometry" />
        </mxCell>
        <mxCell id="jHiKUxw7V34No5H-9bz7-33" value="&lt;font style=&quot;font-size: 24px;&quot;&gt;DEVICE KERNE+ BARRIER&lt;/font&gt;" style="rounded=0;whiteSpace=wrap;html=1;fillColor=#cdeb8b;strokeColor=#36393d;" vertex="1" parent="1">
          <mxGeometry x="1440" y="600" width="310" height="60" as="geometry" />
        </mxCell>
      </root>
    </mxGraphModel>
  </diagram>
</mxfile>
